<?xml version="1.0" encoding="utf-8"?>
<!-- Generator: Adobe Illustrator 27.5.0, SVG Export Plug-In . SVG Version: 6.00 Build 0)  -->
<svg version="1.1" xmlns="http://www.w3.org/2000/svg" xmlns:xlink="http://www.w3.org/1999/xlink" x="0px" y="0px"
	 viewBox="0 0 500 500" style="enable-background:new 0 0 500 500;" xml:space="preserve">
<g id="BACKGROUND">
	<rect style="fill:#FFFFFF;stroke:#FFFFFF;stroke-miterlimit:10;" width="500" height="500"/>
</g>
<g id="OBJECTS">
	<path style="fill:#EBEBEB;" d="M123.123,378.429c-26.662-47.911-21.136-57.719-45.525-76.416s-37.395-62.596,0-108.934
		S73.022,91.674,129.227,60.294c49.507-27.64,75.885,28.544,126.583,7.408c50.698-21.136,112.482-30.892,144.999,13.82
		c32.518,44.712,9.486,88.062,28.184,132.774c18.698,44.712,19.418,95.262-8.942,120.863c-37.246,33.623-62.613,36.848-84.546,65.3
		C297.482,449.784,156.453,438.323,123.123,378.429z"/>
	<g>
		<path style="fill:#455A64;" d="M264.701,442.406h-36.465c-8.903,0-16.12-7.217-16.12-16.12v-46.823h68.705v46.823
			C280.821,435.189,273.604,442.406,264.701,442.406z"/>
		<g>
			<rect x="212.116" y="414.359" style="fill:#263238;" width="68.705" height="3.537"/>
			<path style="fill:#263238;" d="M212.116,423.775v2.511c0,0.347,0.03,0.686,0.052,1.027h68.601
				c0.022-0.341,0.052-0.68,0.052-1.027v-2.511H212.116z"/>
			<path style="fill:#263238;" d="M276.968,436.729c0.91-1.067,1.674-2.257,2.283-3.537h-65.563c0.609,1.28,1.373,2.47,2.283,3.537
				H276.968z"/>
		</g>
		<path style="fill:#FFE9A9;" d="M357.333,226.181c0-61.229-49.636-110.864-110.864-110.864s-110.864,49.636-110.864,110.864
			c0,25.986,8.944,49.88,23.916,68.782l23.877,32.334c12.665,17.15,19.499,37.908,19.499,59.228v3.811
			c0,11.191,9.072,20.263,20.263,20.263h25.676h4.014h16.936c11.191,0,20.263-9.072,20.263-20.263v-3.811
			c0-21.32,6.834-42.078,19.499-59.228l23.878-32.334l-0.007-0.002C348.39,276.06,357.333,252.166,357.333,226.181z"/>
		<path style="fill:#FFC727;" d="M265.204,410.599h3.624l42.557-192.25c0.405-1.834,0.61-3.714,0.61-5.588l-0.005-0.131
			c-0.023-0.304-2.549-30.42-26.895-31.343c-5.204-0.199-10.056,1.606-14.15,5.182c-5.434-6.167-13.364-10.441-24.043-10.931
			l-0.979,0.003c-10.61,0.658-18.513,4.883-23.958,10.906c-4.088-3.562-8.928-5.35-14.126-5.161
			c-24.344,0.923-26.871,31.038-26.894,31.343l-0.005,0.131c0,1.877,0.206,3.757,0.611,5.588l42.556,192.249h3.623l-42.726-193.014
			c-0.344-1.557-0.522-3.155-0.527-4.751c0.128-1.426,2.755-27.225,23.495-28.011c4.951-0.197,8.827,1.749,11.772,4.363
			c-5.183,7.124-7.464,16.093-7.172,24.586c0.353,10.245,4.494,17.382,10.077,17.382c0.015,0,0.03,0,0.045,0
			c3.585-0.024,6.49-1.862,8.404-5.312c4.322-7.792,2.711-22.473-3.591-32.724c-0.961-1.563-2.004-2.982-3.12-4.25
			c4.628-5.243,11.554-9.164,21.643-9.791l0.788-0.002c10.087,0.463,16.989,4.529,21.591,9.945
			c-1.065,1.229-2.064,2.595-2.986,4.096c-6.302,10.252-7.913,24.933-3.591,32.725c1.914,3.45,4.82,5.288,8.404,5.312
			c5.67,0.066,9.641-6.975,9.919-17.453c0.225-8.481-2.017-17.385-7.025-24.463c2.951-2.639,6.836-4.607,11.829-4.414
			c20.872,0.791,23.347,26.204,23.495,28.007c-0.005,1.595-0.182,3.195-0.527,4.755L265.204,410.599z M224.497,194.969
			c5.608,9.124,7.216,22.476,3.511,29.156c-1.276,2.3-3.071,3.475-5.335,3.49c-0.007,0-0.013,0-0.02,0
			c-3.401,0-6.274-6.127-6.544-13.966c-0.215-6.259,1.241-14.864,6.069-21.934C223.071,192.792,223.842,193.902,224.497,194.969z
			 M276.622,213.607c-0.207,7.864-2.991,14.009-6.339,14.009c-0.006,0-0.013,0-0.018,0c-2.265-0.015-4.059-1.19-5.335-3.49
			c-3.706-6.68-2.098-20.033,3.511-29.157c0.614-0.998,1.327-2.034,2.146-3.045C275.317,199.096,276.777,207.732,276.622,213.607z"
			/>
		<g>
			<g>
				<path style="fill:#263238;" d="M246.469,106.088c-1.302,0-2.358-1.056-2.358-2.358V84.008c0-1.302,1.056-2.358,2.358-2.358
					c1.302,0,2.358,1.056,2.358,2.358v19.722C248.827,105.032,247.771,106.088,246.469,106.088z"/>
				<g>
					<path style="fill:#263238;" d="M391.454,236.502h-19.722c-1.302,0-2.358-1.056-2.358-2.358c0-1.302,1.056-2.358,2.358-2.358
						h19.722c1.302,0,2.358,1.056,2.358,2.358C393.812,235.446,392.756,236.502,391.454,236.502z"/>
					<path style="fill:#263238;" d="M121.666,236.502h-19.721c-1.302,0-2.358-1.056-2.358-2.358c0-1.302,1.056-2.358,2.358-2.358
						h19.721c1.302,0,2.358,1.056,2.358,2.358C124.025,235.446,122.969,236.502,121.666,236.502z"/>
				</g>
				<g>
					<path style="fill:#263238;" d="M346.699,336.501c-0.603,0-1.207-0.23-1.667-0.691l-13.946-13.946
						c-0.921-0.921-0.921-2.414,0-3.335c0.921-0.921,2.414-0.921,3.335,0l13.946,13.946c0.921,0.921,0.921,2.414,0,3.335
						C347.905,336.271,347.302,336.501,346.699,336.501z"/>
					<path style="fill:#263238;" d="M155.93,145.732c-0.603,0-1.207-0.23-1.667-0.691l-13.945-13.945
						c-0.921-0.921-0.921-2.414,0-3.335c0.92-0.921,2.415-0.921,3.335,0l13.945,13.945c0.921,0.921,0.921,2.414,0,3.335
						C157.137,145.501,156.533,145.732,155.93,145.732z"/>
				</g>
				<g>
					<path style="fill:#263238;" d="M332.753,145.732c-0.603,0-1.207-0.23-1.667-0.691c-0.921-0.921-0.921-2.414,0-3.335
						l13.946-13.945c0.921-0.921,2.414-0.921,3.335,0c0.921,0.921,0.921,2.414,0,3.335l-13.946,13.945
						C333.96,145.501,333.356,145.732,332.753,145.732z"/>
					<path style="fill:#263238;" d="M141.985,336.501c-0.604,0-1.207-0.23-1.667-0.691c-0.921-0.921-0.921-2.413,0-3.335
						l13.945-13.946c0.92-0.921,2.414-0.921,3.335,0c0.921,0.921,0.921,2.413,0,3.335l-13.945,13.946
						C143.192,336.271,142.588,336.501,141.985,336.501z"/>
				</g>
			</g>
		</g>
	</g>
	<g>
		<path style="fill:#FFC727;" d="M246.469,388.599c0,0-71.332-8.217-75.329,61.394c-0.194,3.374,2.513,6.215,5.892,6.215h69.437
			h69.437c3.379,0,6.086-2.841,5.892-6.215C317.801,380.383,246.469,388.599,246.469,388.599z"/>
		<g>
			<polygon style="fill:#CC9F1F;" points="202.089,456.208 202.089,419.912 189.918,456.208 			"/>
			<polygon style="fill:#CC9F1F;" points="290.848,456.208 290.848,419.912 303.019,456.208 			"/>
		</g>
		<path style="fill:#FFBE9D;" d="M221.951,344.759v46.428c0,13.541,10.977,20.981,24.518,20.981c13.541,0,24.518-7.44,24.518-20.981
			v-46.428H221.951z"/>
		<path style="fill:#EB996E;" d="M270.987,364.712l-49.036,1.412v12.883c4.607,3.873,12.924,9.125,24.518,9.593
			c10.304,0.416,18.904-5.212,24.518-10.298V364.712z"/>
		<g>
			<path style="fill:#263238;" d="M200.763,320.945c0,0-10.361-24.521-10.016-47.316c0.345-22.795,27.975-25.903,40.063-35.919
				c12.088-10.016,13.469-15.542,16.923-11.743c3.454,3.799-5.181,13.124-5.181,13.124s24.176-10.707,31.083-6.217
				c6.907,4.49-5.181,6.907-5.181,6.907s20.722,6.816,25.212,19.123c4.49,12.306-12.088,6.09-12.088,6.09l1.382-4.49
				c0,0,11.798,4.49,14.015,18.305c2.217,13.815-3.309,37.037-7.798,45.112c-4.49,8.075-48.352,11.529-48.352,11.529
				L200.763,320.945z"/>
			<path style="fill:#FFBE9D;" d="M283.381,315.302c-0.23,0-0.454,0.023-0.681,0.035l-0.636-25.33c0,0,1.504-12.006-14.396-16.873
				c0,0-6.11,6.785-27.906,3.569c-19.794-2.92-24.336-8.761-24.336-8.761s-8.555,3.569-8.88,18.82
				c-0.135,6.343-0.572,17.626,0.341,28.644c-7.29,0.842-13.809,7.331-13.16,14.686c0.654,7.407,7.133,12.892,14.523,12.356
				c0.221,2.125,0.356,3.38,0.356,3.38h0.001c1.715,19.102,17.758,34.075,37.307,34.075c20.673,0,37.435-16.744,37.465-37.411
				c0,0,0.001,0,0.001,0c7.508,0,13.595-6.087,13.595-13.595C296.976,321.388,290.89,315.302,283.381,315.302z"/>
		</g>
		<g>
			<path style="fill:#455A64;" d="M263.565,275.541c1.021-0.43,1.977-0.992,2.823-1.661c0.838-0.675,1.541-1.51,1.904-2.455
				c0.388-0.927,0.402-1.974,0.115-2.908c-0.294-0.946-0.844-1.833-1.517-2.626c-1.36-1.583-3.083-2.899-4.925-3.991
				c-1.83-1.122-3.8-2.029-5.82-2.788c-4.038-1.581-8.328-2.253-12.705-2.604c-4.372-0.316-8.788-0.413-13.22-0.324
				c4.373-0.752,8.821-1.106,13.286-1.026c4.443,0.066,9.02,0.687,13.256,2.304c2.119,0.795,4.167,1.789,6.094,3.003
				c1.897,1.248,3.732,2.676,5.132,4.563c0.691,0.939,1.29,1.999,1.559,3.199c0.257,1.206,0.111,2.495-0.455,3.57
				c-0.576,1.07-1.469,1.872-2.428,2.471C265.702,274.872,264.649,275.296,263.565,275.541z"/>
		</g>
		<g>
			<path style="fill:#455A64;" d="M273.605,264.576c3.788,0.62,7.582,1.135,11.346,1.349c1.873,0.064,3.77,0.104,5.517-0.257
				c0.857-0.179,1.704-0.444,2.259-0.901c0.282-0.222,0.47-0.481,0.585-0.771c0.052-0.13,0.094-0.327,0.137-0.54
				c0.037-0.205,0.067-0.412,0.084-0.621c0.177-1.679-0.35-3.437-1.158-5.046c-0.796-1.632-1.919-3.126-3.123-4.553
				c-2.466-2.82-5.372-5.31-8.413-7.652c3.408,1.766,6.666,3.927,9.424,6.718c1.385,1.385,2.619,2.952,3.596,4.718
				c0.946,1.764,1.616,3.819,1.435,5.98c-0.024,0.267-0.068,0.534-0.12,0.799c-0.056,0.255-0.112,0.529-0.237,0.843
				c-0.241,0.599-0.662,1.12-1.138,1.481c-0.963,0.734-2.02,1.013-3.028,1.192c-2.032,0.307-3.999,0.214-5.933-0.015
				C280.971,266.843,277.228,265.862,273.605,264.576z"/>
		</g>
		<g>
			<path style="fill:#455A64;" d="M269.135,231.783c-3.48,0.489-6.868,1.281-10.216,2.191c-3.34,0.938-6.635,2.006-9.866,3.255
				c-1.603,0.652-3.234,1.245-4.802,1.985l-2.383,1.044c-0.776,0.388-1.559,0.762-2.346,1.132c-1.586,0.717-3.097,1.579-4.664,2.353
				c-1.553,0.798-3.054,1.691-4.638,2.475c1.361-1.108,2.746-2.202,4.186-3.217c1.475-0.957,2.912-1.995,4.467-2.83
				c3.027-1.826,6.27-3.262,9.546-4.592c3.312-1.242,6.712-2.264,10.185-2.943C262.069,231.964,265.614,231.54,269.135,231.783z"/>
		</g>
		<g>
			<path style="fill:#263238;" d="M229.225,306.878c0,1.893-1.535,3.428-3.428,3.428s-3.428-1.535-3.428-3.428
				c0-1.893,1.535-3.428,3.428-3.428S229.225,304.985,229.225,306.878z"/>
			<path style="fill:#263238;" d="M265.814,306.878c0,1.893-1.535,3.428-3.428,3.428c-1.893,0-3.428-1.535-3.428-3.428
				c0-1.893,1.535-3.428,3.428-3.428C264.279,303.451,265.814,304.985,265.814,306.878z"/>
			<g>
				<path style="fill:#263238;" d="M217.758,309.291c-0.123-1.921,0.61-3.941,2.063-5.464c1.439-1.572,3.657-2.328,5.699-2.396
					c2.029-0.107,4.248,0.503,5.868,1.878c1.613,1.376,2.509,3.387,2.449,5.312c-0.983-1.63-2.204-2.915-3.619-3.661
					c-1.407-0.742-2.97-1.029-4.611-0.958c-1.609,0.076-3.152,0.417-4.464,1.348C219.799,306.239,218.678,307.626,217.758,309.291z"
					/>
			</g>
			<g>
				<path style="fill:#263238;" d="M254.347,309.291c-0.123-1.921,0.61-3.941,2.063-5.464c1.439-1.572,3.657-2.328,5.699-2.396
					c2.029-0.107,4.248,0.503,5.868,1.878c1.612,1.376,2.509,3.387,2.449,5.312c-0.983-1.63-2.204-2.915-3.619-3.661
					c-1.407-0.742-2.97-1.029-4.611-0.958c-1.609,0.076-3.152,0.417-4.464,1.348C256.388,306.239,255.267,307.626,254.347,309.291z"
					/>
			</g>
			<g>
				<path style="fill:#263238;" d="M238.409,298.827c1.471,4.313,2.309,8.845,2.678,13.407c0.201,2.283,0.244,4.579,0.192,6.876
					c-0.071,2.294-0.284,4.58-0.482,6.829c-0.104,1.12-0.212,2.24-0.215,3.314c-0.009,1.065,0.111,2.127,0.557,2.784
					c0.409,0.665,1.345,0.974,2.383,1.069c0.997,0.099,1.967-0.062,2.781-0.606c1.65-1.092,2.514-3.297,2.909-5.429
					c0.422-2.175,0.388-4.457-0.044-6.687c0.813,2.136,1.04,4.48,0.886,6.8c-0.103,1.162-0.338,2.327-0.783,3.449
					c-0.431,1.12-1.143,2.203-2.188,2.983c-1.038,0.798-2.425,1.123-3.68,1.02c-0.611-0.032-1.249-0.129-1.892-0.364
					c-0.639-0.226-1.291-0.663-1.722-1.268c-0.441-0.596-0.661-1.273-0.776-1.903c-0.117-0.635-0.147-1.246-0.155-1.843
					c-0.01-1.196,0.09-2.34,0.18-3.479c0.478-4.524,0.802-8.965,0.668-13.473C239.57,307.815,239.21,303.303,238.409,298.827z"/>
			</g>
			<g>
				<path style="fill:#263238;" d="M231.061,340.14c1.68,1.993,3.709,3.583,5.939,4.644c2.228,1.069,4.679,1.517,7.122,1.393
					c2.471-0.083,4.938-0.617,7.219-1.586c2.263-1.001,4.402-2.433,6.06-4.45c-1.036,2.43-3.106,4.372-5.447,5.687
					c-1.169,0.693-2.464,1.115-3.755,1.517c-1.318,0.309-2.639,0.545-4.003,0.598l-1.025,0.017
					c-0.341-0.003-0.683-0.052-1.024-0.077c-0.685-0.036-1.359-0.174-2.029-0.326c-1.32-0.359-2.626-0.823-3.773-1.564
					C234.024,344.593,232.128,342.539,231.061,340.14z"/>
			</g>
			<path style="fill:#263238;" d="M214.375,292.588c2.559-0.72,8.099-1.981,16.159-2.221c0.886-0.026,1.403-1.015,0.895-1.741
				c-1.081-1.547-3.563-3.512-9.12-3.011c-6.645,0.599-8.683,3.603-9.297,5.616C212.761,292.055,213.546,292.821,214.375,292.588z"
				/>
			<path style="fill:#263238;" d="M271.487,292.588c-2.559-0.72-8.099-1.981-16.159-2.221c-0.886-0.026-1.403-1.015-0.895-1.741
				c1.08-1.547,3.563-3.512,9.12-3.011c6.645,0.599,8.683,3.603,9.297,5.616C273.101,292.055,272.317,292.821,271.487,292.588z"/>
			<g>
				<path style="fill:#EB996E;" d="M206.98,338.824c-2.346-0.02-4.766-0.887-6.614-2.572c-1.921-1.651-2.885-4.226-3.078-6.674
					c-0.204-2.44,0.467-5.176,2.251-7.013c1.738-1.857,4.194-2.75,6.531-2.784c-2.204,0.755-4.21,1.965-5.478,3.677
					c-0.604,0.864-1.121,1.788-1.31,2.831c-0.168,0.494-0.16,1.042-0.255,1.558c0.004,0.535-0.017,1.074,0.024,1.607
					c0.095,1.069,0.252,2.142,0.666,3.115c0.146,0.515,0.439,0.957,0.673,1.435c0.309,0.429,0.583,0.889,0.953,1.283
					C202.764,336.907,204.767,338.084,206.98,338.824z"/>
			</g>
			<g>
				<path style="fill:#EB996E;" d="M283.618,319.117c2.346,0.02,4.766,0.887,6.614,2.572c1.921,1.651,2.885,4.226,3.077,6.674
					c0.204,2.44-0.467,5.176-2.251,7.013c-1.738,1.857-4.194,2.75-6.531,2.784c2.204-0.755,4.21-1.965,5.478-3.677
					c0.604-0.864,1.121-1.788,1.31-2.831c0.168-0.494,0.16-1.042,0.255-1.558c-0.004-0.535,0.017-1.073-0.024-1.607
					c-0.095-1.069-0.252-2.142-0.666-3.115c-0.146-0.515-0.439-0.957-0.673-1.435c-0.309-0.429-0.584-0.889-0.953-1.283
					C287.834,321.035,285.832,319.857,283.618,319.117z"/>
			</g>
		</g>
	</g>
	<g>
		<path style="fill:#263238;" d="M391.46,376.062l0.012-0.004L382.1,349.85c-0.448-1.253-1.832-1.901-3.081-1.442l-19.812,7.269
			c-1.225,0.45-1.865,1.797-1.439,3.031l6.759,19.565c-2.106-0.121-4.359,0.421-6.829,4.169c-0.825,1.252-1.245,2.738-1.065,4.226
			c0.561,4.617,5.212,7.762,9.913,6.197c2.634-0.877,4.602-3.246,4.977-5.996c0.167-1.222,0.046-2.38-0.293-3.429l0.095-0.033
			l-7.393-21.085l15.477-5.68l5.258,14.487c-2.148-0.071-4.412,0.44-7.225,5.908c-0.382,0.743-0.588,1.585-0.496,2.415
			c0.474,4.283,4.463,7.324,8.776,6.568c2.577-0.452,4.704-2.35,5.662-4.784C392.15,379.291,392.007,377.57,391.46,376.062z"/>
		<path style="fill:#FFC727;" d="M395.805,283.731l0.09,0.043l9.62-20.166l3.191-7.19c0,0,0,0,0-0.001l-1.856-0.853
			c-1.186-0.545-2.591-0.04-3.158,1.135l-8.999,18.64c0,0,0,0-0.001,0c-1.438-1.604-3.474-2.826-8.069-1.795
			c-1.178,0.265-2.284,0.863-3.093,1.761c-3.293,3.656-2.305,9.518,2.308,11.808c2.486,1.234,5.552,0.941,7.757-0.745
			C394.576,285.62,395.307,284.714,395.805,283.731z"/>
		<path style="fill:#FFC727;" d="M192.546,88.892l-3.9-0.109c-0.49-1.534-1.158-3.034-2.059-4.456
			c-1.001-1.581-2.204-2.954-3.541-4.134l1.615-3.709c0.742-1.705-0.038-3.689-1.743-4.431l-5.146-2.241
			c-1.705-0.742-3.689,0.038-4.431,1.743l-1.683,3.865c-1.988-0.147-4.003,0.006-5.978,0.486l-2.271-3.585
			c-0.995-1.571-3.075-2.038-4.646-1.043l-4.742,3.003c-1.571,0.995-2.038,3.075-1.043,4.646l2.271,3.585
			c-1.29,1.596-2.296,3.37-3.014,5.25l-4.214-0.118c-1.859-0.052-3.408,1.412-3.46,3.271l-0.157,5.611
			c-0.052,1.859,1.412,3.408,3.271,3.46l4.045,0.113c0.495,1.694,1.216,3.35,2.207,4.913c0.911,1.439,1.997,2.698,3.191,3.806
			l-1.557,3.576c-0.742,1.705,0.038,3.689,1.743,4.431l5.146,2.241c1.705,0.742,3.689-0.038,4.431-1.743l1.498-3.441
			c2.142,0.212,4.322,0.07,6.455-0.449l1.978,3.123c0.995,1.571,3.075,2.038,4.646,1.043l4.742-3.003
			c1.571-0.995,2.038-3.075,1.043-4.646l-1.978-3.124c1.392-1.722,2.46-3.651,3.185-5.698l3.751,0.105
			c1.859,0.052,3.408-1.413,3.46-3.271l0.157-5.611C195.87,90.493,194.405,88.944,192.546,88.892z M175.495,102.941
			c-4.561,2.889-10.621,1.529-13.51-3.032c-2.889-4.561-1.529-10.621,3.032-13.51c4.561-2.889,10.622-1.529,13.511,3.032
			C181.417,93.992,180.056,100.053,175.495,102.941z"/>
		<g>
			<path style="fill:#263238;" d="M105.638,189.357L67.12,216.667l-6.912-9.783l38.518-27.309c1.467-1.036,3.495-0.687,4.532,0.779
				l3.159,4.472C107.453,186.292,107.104,188.321,105.638,189.357z"/>
			<path style="fill:#FFC727;" d="M61.612,208.197l-1.404-1.313c0,0-0.959,5.723-5.986,10.007l0.687,0.972l0.687,0.972
				c5.717-3.307,11.524-2.17,11.524-2.17c-2.309-4.962,1.846-8.637,1.846-8.637C65.575,210.096,63.058,209.201,61.612,208.197z"/>
			<path style="fill:#263238;" d="M54.222,216.891l2.132-0.048l-0.757,1.993l-2.893,2.044c-0.351,0.248-0.837,0.164-1.085-0.187
				l-0.476-0.673c-0.248-0.351-0.165-0.837,0.187-1.085L54.222,216.891z"/>
		</g>
		<g>
			<path style="fill:#FFC727;" d="M388.923,90.794c-10.349-26.906-36.734-26.143-51.829-9.6c0,0-12.478,13.465-3.375,27.036
				c9.103,13.571,22.155,4.439,33.563,12.908C378.69,129.607,399.272,117.7,388.923,90.794z M373.969,116.46
				c-1.616-2.31-1.054-5.494,1.257-7.11c2.31-1.616,5.494-1.054,7.11,1.257c1.617,2.311,1.054,5.494-1.257,7.11
				S375.586,118.77,373.969,116.46z"/>
			<g>
				<g>
					<g>
						<path style="fill:#263238;" d="M356.813,108.546c0,2.142-1.736,3.878-3.878,3.878c-2.142,0-3.878-1.736-3.878-3.878
							s1.736-3.878,3.878-3.878C355.077,104.668,356.813,106.404,356.813,108.546z"/>
					</g>
					<g>
						<circle style="fill:#263238;" cx="340.976" cy="103.258" r="3.878"/>
					</g>
					<g>
						<path style="fill:#263238;" d="M345.735,89.411c0,2.142-1.736,3.878-3.878,3.878c-2.142,0-3.878-1.736-3.878-3.878
							s1.736-3.878,3.878-3.878C343.999,85.532,345.735,87.269,345.735,89.411z"/>
					</g>
					<g>
						<path style="fill:#263238;" d="M355.051,80.095c0,2.142-1.736,3.878-3.878,3.878s-3.878-1.736-3.878-3.878
							s1.736-3.878,3.878-3.878S355.051,77.953,355.051,80.095z"/>
					</g>
					<g>
						<path style="fill:#263238;" d="M367.946,78.584c0,2.142-1.736,3.878-3.878,3.878s-3.878-1.736-3.878-3.878
							s1.736-3.878,3.878-3.878S367.946,76.442,367.946,78.584z"/>
					</g>
				</g>
			</g>
		</g>
		<g>
			<path style="fill:#FFC727;" d="M115.924,318.568L79.1,335.606c-1.478,0.684-2.096,2.455-1.365,3.909l25.58,50.876
				c0.714,1.42,2.442,1.993,3.863,1.283l37.412-18.706c1.449-0.724,2.016-2.5,1.256-3.93l-26.168-49.208
				C118.96,318.48,117.312,317.926,115.924,318.568z"/>
			<g>
				
					<rect x="85.07" y="334.552" transform="matrix(0.9002 -0.4355 0.4355 0.9002 -135.8644 77.9904)" style="fill:#263238;" width="34.3" height="1.72"/>
				
					<rect x="87.4" y="340.782" transform="matrix(0.9002 -0.4355 0.4355 0.9002 -138.96 76.9392)" style="fill:#263238;" width="21.96" height="1.72"/>
				
					<rect x="88.765" y="342.801" transform="matrix(0.9002 -0.4355 0.4355 0.9002 -139.355 79.2591)" style="fill:#263238;" width="28.955" height="1.72"/>
				
					<rect x="90.212" y="345.18" transform="matrix(0.9002 -0.4355 0.4355 0.9002 -139.9795 81.29)" style="fill:#263238;" width="34.3" height="1.72"/>
				
					<rect x="92.404" y="350.811" transform="matrix(0.9002 -0.4355 0.4355 0.9002 -142.6923 80.7198)" style="fill:#263238;" width="24.711" height="1.72"/>
				
					<rect x="93.804" y="352.984" transform="matrix(0.9002 -0.4355 0.4355 0.9002 -143.185 82.9154)" style="fill:#263238;" width="30.999" height="1.72"/>
			</g>
		</g>
	</g>
</g>
</svg>
